<?xml version="1.0"?>
<svg xmlns="http://www.w3.org/2000/svg" id="Layer_1" enable-background="new 0 0 512.804 512.804" height="512px" viewBox="0 0 512.804 512.804" width="512px" class=""><g><path d="m512.402 331.402c0-91.564-76.199-165-167-165-5.219 0-10.436.255-15.623.743-7.253-84.33-78.199-150.743-164.377-150.743-90.981 0-165 74.019-165 165 0 41.408 16.089 81.482 44.57 112.005l-44.972 52.995h165.402c5.269 0 10.478-.259 15.623-.744 7.252 84.331 78.199 150.744 164.377 150.744h167.402l-44.972-52.995c28.481-30.523 44.57-70.597 44.57-112.005zm-447.598-15 21.479-25.312c-3.83-4.894-55.881-38.579-55.881-109.688 0-74.439 60.561-135 135-135s135 60.561 135 135-60.561 135-135 135zm280.598 150c-71.523 0-130.222-55.911-134.713-126.32 64.108-18.323 112.379-74.538 118.942-142.758 5.222-.606 10.495-.922 15.771-.922 75.542 0 137 60.561 137 135 0 70.816-51.934 104.645-55.881 109.688l21.479 25.312z" data-original="#000000" class="active-path" data-old_color="#000000" fill="#1C3547"/><path d="m227.944 140.073 11.704-11.704-21.213-21.213-11.704 11.704c-7.869-5.218-16.768-9-26.33-10.948v-16.51h-30v16.509c-9.561 1.949-18.46 5.731-26.33 10.948l-11.704-11.704-21.213 21.213 11.704 11.704c-5.218 7.869-9 16.768-10.948 26.33h-16.508v30h16.509c1.949 9.562 5.731 18.46 10.948 26.33l-11.704 11.704 21.213 21.213 11.704-11.704c7.869 5.218 16.768 9 26.33 10.948v16.509h30v-16.509c9.561-1.949 18.46-5.731 26.33-10.948l11.704 11.704 21.213-21.213-11.704-11.704c5.218-7.869 9-16.768 10.948-26.33h16.509v-30h-16.509c-1.949-9.561-5.731-18.46-10.949-26.329zm-62.542 86.329c-24.813 0-45-20.187-45-45s20.187-45 45-45 45 20.187 45 45-20.187 45-45 45z" data-original="#000000" class="active-path" data-old_color="#000000" fill="#1C3547"/><path d="m150.402 166.402h30v30h-30z" data-original="#000000" class="active-path" data-old_color="#000000" fill="#1C3547"/></g> </svg>
